<mxfile host="app.diagrams.net" modified="2020-10-11T19:25:46.890Z" agent="5.0 (Windows NT 10.0; Win64; x64) AppleWebKit/537.36 (KHTML, like Gecko) Chrome/85.0.4183.121 Safari/537.36" etag="wTKbrYbGJ3Zrqn_XVBGX" version="13.7.9" type="github">
  <diagram name="Page-1" id="2a216829-ef6e-dabb-86c1-c78162f3ba2b">
    <mxGraphModel dx="1021" dy="612" grid="1" gridSize="10" guides="1" tooltips="1" connect="1" arrows="1" fold="1" page="1" pageScale="1" pageWidth="850" pageHeight="1100" background="#ffffff" math="0" shadow="0">
      <root>
        <mxCell id="0" />
        <mxCell id="1" parent="0" />
        <mxCell id="7a84cebc1def654-2" value="/start" style="shape=ext;rounded=1;html=1;whiteSpace=wrap;" parent="1" vertex="1">
          <mxGeometry x="225" y="150" width="120" height="80" as="geometry" />
        </mxCell>
        <mxCell id="7a84cebc1def654-4" value="" style="shape=message;whiteSpace=wrap;html=1;" parent="1" vertex="1">
          <mxGeometry x="100" y="175" width="40" height="30" as="geometry" />
        </mxCell>
        <mxCell id="7a84cebc1def654-37" style="edgeStyle=orthogonalEdgeStyle;rounded=0;html=1;jettySize=auto;orthogonalLoop=1;endArrow=none;endFill=0;" parent="1" source="7a84cebc1def654-4" target="7a84cebc1def654-2" edge="1">
          <mxGeometry relative="1" as="geometry" />
        </mxCell>
        <mxCell id="4E8eTt_2L8R5DySn5QvZ-1" style="edgeStyle=orthogonalEdgeStyle;rounded=0;orthogonalLoop=1;jettySize=auto;html=1;exitX=0.5;exitY=1;exitDx=0;exitDy=0;fontFamily=Times New Roman;" edge="1" parent="1" source="7a84cebc1def654-4">
          <mxGeometry relative="1" as="geometry">
            <mxPoint x="120" y="200" as="targetPoint" />
          </mxGeometry>
        </mxCell>
        <mxCell id="4E8eTt_2L8R5DySn5QvZ-5" style="edgeStyle=orthogonalEdgeStyle;rounded=0;orthogonalLoop=1;jettySize=auto;html=1;fontFamily=Times New Roman;entryX=0;entryY=0.5;entryDx=0;entryDy=0;" edge="1" parent="1" source="4E8eTt_2L8R5DySn5QvZ-7" target="4E8eTt_2L8R5DySn5QvZ-6">
          <mxGeometry relative="1" as="geometry">
            <mxPoint x="400" y="420" as="targetPoint" />
            <Array as="points">
              <mxPoint x="400" y="346" />
              <mxPoint x="400" y="350" />
              <mxPoint x="440" y="350" />
            </Array>
          </mxGeometry>
        </mxCell>
        <mxCell id="7a84cebc1def654-5" value="" style="shape=message;whiteSpace=wrap;html=1;" parent="1" vertex="1">
          <mxGeometry x="265" y="345" width="40" height="30" as="geometry" />
        </mxCell>
        <mxCell id="4E8eTt_2L8R5DySn5QvZ-4" style="edgeStyle=orthogonalEdgeStyle;rounded=0;html=1;jettySize=auto;orthogonalLoop=1;" edge="1" parent="1" source="7a84cebc1def654-2" target="7a84cebc1def654-5">
          <mxGeometry relative="1" as="geometry">
            <mxPoint x="285" y="229.9999999999999" as="sourcePoint" />
            <mxPoint x="590.0000000000002" y="330" as="targetPoint" />
            <Array as="points" />
          </mxGeometry>
        </mxCell>
        <mxCell id="4E8eTt_2L8R5DySn5QvZ-13" style="edgeStyle=orthogonalEdgeStyle;rounded=0;orthogonalLoop=1;jettySize=auto;html=1;exitX=0.5;exitY=1;exitDx=0;exitDy=0;entryX=0.5;entryY=0;entryDx=0;entryDy=0;fontFamily=Times New Roman;" edge="1" parent="1" source="4E8eTt_2L8R5DySn5QvZ-6" target="4E8eTt_2L8R5DySn5QvZ-12">
          <mxGeometry relative="1" as="geometry" />
        </mxCell>
        <mxCell id="4E8eTt_2L8R5DySn5QvZ-6" value="Moder Code" style="rounded=1;whiteSpace=wrap;html=1;fontFamily=Times New Roman;" vertex="1" parent="1">
          <mxGeometry x="440" y="330" width="120" height="60" as="geometry" />
        </mxCell>
        <mxCell id="4E8eTt_2L8R5DySn5QvZ-8" style="edgeStyle=orthogonalEdgeStyle;rounded=0;orthogonalLoop=1;jettySize=auto;html=1;fontFamily=Times New Roman;" edge="1" parent="1" source="4E8eTt_2L8R5DySn5QvZ-7" target="4E8eTt_2L8R5DySn5QvZ-11">
          <mxGeometry relative="1" as="geometry">
            <mxPoint x="120" y="460" as="targetPoint" />
          </mxGeometry>
        </mxCell>
        <mxCell id="4E8eTt_2L8R5DySn5QvZ-7" value="Nothing" style="rounded=1;whiteSpace=wrap;html=1;fontFamily=Times New Roman;" vertex="1" parent="1">
          <mxGeometry x="60" y="330" width="120" height="60" as="geometry" />
        </mxCell>
        <mxCell id="4E8eTt_2L8R5DySn5QvZ-20" style="edgeStyle=orthogonalEdgeStyle;rounded=0;orthogonalLoop=1;jettySize=auto;html=1;entryX=0.58;entryY=0.025;entryDx=0;entryDy=0;entryPerimeter=0;fontFamily=Times New Roman;" edge="1" parent="1" source="4E8eTt_2L8R5DySn5QvZ-11" target="4E8eTt_2L8R5DySn5QvZ-19">
          <mxGeometry relative="1" as="geometry" />
        </mxCell>
        <mxCell id="4E8eTt_2L8R5DySn5QvZ-11" value="Person get list of buttons Inline/ or keyboard buttons (with a button hide)" style="text;html=1;strokeColor=none;fillColor=none;align=center;verticalAlign=middle;whiteSpace=wrap;rounded=0;fontFamily=Times New Roman;" vertex="1" parent="1">
          <mxGeometry x="30" y="480" width="220" height="70" as="geometry" />
        </mxCell>
        <mxCell id="4E8eTt_2L8R5DySn5QvZ-15" style="edgeStyle=orthogonalEdgeStyle;rounded=0;orthogonalLoop=1;jettySize=auto;html=1;exitX=0.5;exitY=1;exitDx=0;exitDy=0;entryX=0.5;entryY=0;entryDx=0;entryDy=0;fontFamily=Times New Roman;" edge="1" parent="1" source="4E8eTt_2L8R5DySn5QvZ-12" target="4E8eTt_2L8R5DySn5QvZ-14">
          <mxGeometry relative="1" as="geometry" />
        </mxCell>
        <mxCell id="4E8eTt_2L8R5DySn5QvZ-12" value="You get a inline keyboard with callback_data to link" style="rounded=0;whiteSpace=wrap;html=1;fontFamily=Times New Roman;" vertex="1" parent="1">
          <mxGeometry x="440" y="450" width="120" height="60" as="geometry" />
        </mxCell>
        <mxCell id="4E8eTt_2L8R5DySn5QvZ-17" style="edgeStyle=orthogonalEdgeStyle;rounded=0;orthogonalLoop=1;jettySize=auto;html=1;exitX=0.5;exitY=1;exitDx=0;exitDy=0;entryX=0.5;entryY=0;entryDx=0;entryDy=0;fontFamily=Times New Roman;" edge="1" parent="1" source="4E8eTt_2L8R5DySn5QvZ-14" target="4E8eTt_2L8R5DySn5QvZ-16">
          <mxGeometry relative="1" as="geometry" />
        </mxCell>
        <mxCell id="4E8eTt_2L8R5DySn5QvZ-14" value="When u press a button app push u to array of moderators of this sphere" style="rounded=1;whiteSpace=wrap;html=1;fontFamily=Times New Roman;" vertex="1" parent="1">
          <mxGeometry x="620" y="600" width="120" height="60" as="geometry" />
        </mxCell>
        <mxCell id="4E8eTt_2L8R5DySn5QvZ-23" style="edgeStyle=orthogonalEdgeStyle;rounded=0;orthogonalLoop=1;jettySize=auto;html=1;fontFamily=Times New Roman;entryX=0.443;entryY=1.007;entryDx=0;entryDy=0;entryPerimeter=0;" edge="1" parent="1" source="4E8eTt_2L8R5DySn5QvZ-16" target="4E8eTt_2L8R5DySn5QvZ-18">
          <mxGeometry relative="1" as="geometry">
            <mxPoint x="480" y="941" as="targetPoint" />
            <Array as="points">
              <mxPoint x="510" y="941" />
              <mxPoint x="152" y="941" />
            </Array>
          </mxGeometry>
        </mxCell>
        <mxCell id="4E8eTt_2L8R5DySn5QvZ-16" value="For example its a key1 sphere" style="rounded=1;whiteSpace=wrap;html=1;fontFamily=Times New Roman;" vertex="1" parent="1">
          <mxGeometry x="420" y="730" width="120" height="60" as="geometry" />
        </mxCell>
        <mxCell id="4E8eTt_2L8R5DySn5QvZ-22" style="edgeStyle=orthogonalEdgeStyle;rounded=0;orthogonalLoop=1;jettySize=auto;html=1;entryX=0;entryY=0.5;entryDx=0;entryDy=0;fontFamily=Times New Roman;" edge="1" parent="1" source="4E8eTt_2L8R5DySn5QvZ-18" target="4E8eTt_2L8R5DySn5QvZ-16">
          <mxGeometry relative="1" as="geometry" />
        </mxCell>
        <mxCell id="4E8eTt_2L8R5DySn5QvZ-25" style="edgeStyle=orthogonalEdgeStyle;rounded=0;orthogonalLoop=1;jettySize=auto;html=1;entryX=0;entryY=0.5;entryDx=0;entryDy=0;fontFamily=Times New Roman;" edge="1" parent="1" source="4E8eTt_2L8R5DySn5QvZ-18" target="4E8eTt_2L8R5DySn5QvZ-24">
          <mxGeometry relative="1" as="geometry">
            <Array as="points">
              <mxPoint x="100" y="945" />
              <mxPoint x="40" y="945" />
              <mxPoint x="40" y="1020" />
            </Array>
          </mxGeometry>
        </mxCell>
        <mxCell id="4E8eTt_2L8R5DySn5QvZ-18" value="If u need a help from admin u write smth like /help or a tutor and We link you(a client) to our moderator for example of first key sphere" style="rounded=1;whiteSpace=wrap;html=1;fontFamily=Times New Roman;" vertex="1" parent="1">
          <mxGeometry x="50" y="760" width="230" height="140" as="geometry" />
        </mxCell>
        <mxCell id="4E8eTt_2L8R5DySn5QvZ-21" style="edgeStyle=orthogonalEdgeStyle;rounded=0;orthogonalLoop=1;jettySize=auto;html=1;entryX=0.5;entryY=0;entryDx=0;entryDy=0;fontFamily=Times New Roman;" edge="1" parent="1" source="4E8eTt_2L8R5DySn5QvZ-19" target="4E8eTt_2L8R5DySn5QvZ-18">
          <mxGeometry relative="1" as="geometry" />
        </mxCell>
        <mxCell id="4E8eTt_2L8R5DySn5QvZ-19" value="Bot give to u an algrothm with files audios videos and prbly a test (quiz)" style="rounded=1;whiteSpace=wrap;html=1;fontFamily=Times New Roman;" vertex="1" parent="1">
          <mxGeometry x="60" y="630" width="120" height="60" as="geometry" />
        </mxCell>
        <mxCell id="4E8eTt_2L8R5DySn5QvZ-24" value="If u done or nothing write to a tutor we broke a link with your id and relink your messages to a moderator and write to both of u that u ended a sesion" style="rounded=1;whiteSpace=wrap;html=1;fontFamily=Times New Roman;" vertex="1" parent="1">
          <mxGeometry x="170" y="990" width="330" height="100" as="geometry" />
        </mxCell>
      </root>
    </mxGraphModel>
  </diagram>
</mxfile>
